<svg width="24" height="24" viewBox="0 0 16 16" fill="#F2F2F0" fill-rule="evenodd" clip-rule="evenodd" style="pointer-events: none; filter: drop-shadow(rgba(0, 0, 0, 0.1) 0px -1px 0px);"><g><path d="M15.3333 15.3334H0.666667C0.489856 15.3334 0.320286 15.2631 0.195262 15.1381C0.0702379 15.0131 0 14.8435 0 14.6667C0 14.4899 0.0702379 14.3203 0.195262 14.1953C0.320286 14.0703 0.489856 14 0.666667 14H15.3333C15.5101 14 15.6797 14.0703 15.8047 14.1953C15.9298 14.3203 16 14.4899 16 14.6667C16 14.8435 15.9298 15.0131 15.8047 15.1381C15.6797 15.2631 15.5101 15.3334 15.3333 15.3334Z"></path><path d="M8.66669 3.36735V2.00002H10C10.1768 2.00002 10.3464 1.92978 10.4714 1.80476C10.5964 1.67973 10.6667 1.51016 10.6667 1.33335C10.6667 1.15654 10.5964 0.986973 10.4714 0.861949C10.3464 0.736925 10.1768 0.666687 10 0.666687H6.00002C5.82321 0.666687 5.65364 0.736925 5.52862 0.861949C5.40359 0.986973 5.33335 1.15654 5.33335 1.33335C5.33335 1.51016 5.40359 1.67973 5.52862 1.80476C5.65364 1.92978 5.82321 2.00002 6.00002 2.00002H7.33335V3.36735C5.51262 3.53508 3.82003 4.37634 2.58696 5.72643C1.35388 7.07653 0.669108 8.83824 0.666687 10.6667V12C0.666687 12.1768 0.736925 12.3464 0.861949 12.4714C0.986973 12.5964 1.15654 12.6667 1.33335 12.6667H14.6667C14.8435 12.6667 15.0131 12.5964 15.1381 12.4714C15.2631 12.3464 15.3334 12.1768 15.3334 12V10.6667C15.3309 8.83824 14.6462 7.07653 13.4131 5.72643C12.18 4.37634 10.4874 3.53508 8.66669 3.36735V3.36735ZM4.70002 7.36735C4.26559 7.79977 3.92113 8.31398 3.68656 8.88027C3.45198 9.44657 3.33194 10.0537 3.33335 10.6667C3.33335 10.8435 3.26312 11.0131 3.13809 11.1381C3.01307 11.2631 2.8435 11.3334 2.66669 11.3334C2.48988 11.3334 2.32031 11.2631 2.19528 11.1381C2.07026 11.0131 2.00002 10.8435 2.00002 10.6667C1.99786 9.87843 2.15206 9.09758 2.45371 8.36933C2.75536 7.64107 3.19845 6.97988 3.75735 6.42402C3.88309 6.30258 4.05149 6.23539 4.22629 6.2369C4.40109 6.23842 4.56829 6.30854 4.6919 6.43214C4.8155 6.55575 4.88562 6.72296 4.88714 6.89775C4.88866 7.07255 4.82146 7.24095 4.70002 7.36669V7.36735Z"></path></g></svg>
