<svg width="24" height="24" viewBox="0 0 16 16" fill="#F2F2F0" fill-rule="evenodd" clip-rule="evenodd" style="pointer-events: none; filter: drop-shadow(rgba(0, 0, 0, 0.1) 0px -1px 0px);"><g><path d="M6.95194 1.52401L10.3828 4.95423C10.3191 4.52123 10.2766 4.20384 10.27 4.14894C10.2279 3.79811 10.2834 3.44247 10.4304 3.12115L7.57453 0.266086C7.48451 0.176126 7.3766 0.106066 7.25778 0.0604392C7.13896 0.0148124 7.01188 -0.00536396 6.88477 0.00121608C6.75766 0.00779612 6.63334 0.0409859 6.51987 0.0986372C6.4064 0.156289 6.3063 0.237117 6.22606 0.33589C6.14478 0.438002 6.08719 0.556879 6.05744 0.683942C6.0277 0.811005 6.02654 0.943085 6.05405 1.07065C6.39389 1.12268 6.70835 1.28146 6.95194 1.52401Z"></path><path d="M13.6616 3.50325C13.952 4.65672 14.3138 5.79104 14.745 6.89965C14.9373 7.42791 15.1264 7.94744 15.2934 8.44697C15.5146 9.10689 15.6151 9.80122 15.5901 10.4967C16.0789 9.35855 16.1324 8.08055 15.7407 6.90547C15.2079 5.31415 14.4511 3.51924 14.0885 1.8883C14.0391 1.6485 13.9057 1.43418 13.7124 1.28379C13.5192 1.13341 13.2786 1.05681 13.0339 1.06774C12.775 1.09267 12.5357 1.21652 12.3659 1.41347C12.196 1.61042 12.1087 1.86529 12.1222 2.12498C12.491 2.1643 12.838 2.31854 13.1143 2.56588C13.3905 2.81322 13.582 3.14114 13.6616 3.50325V3.50325Z"></path><path d="M4.12338 2.29543L4.19612 2.36815C4.24124 2.10332 4.35398 1.85462 4.52342 1.64611C4.65204 1.49459 4.80734 1.36792 4.98163 1.27237L4.74671 1.03751C4.65671 0.947466 4.54879 0.877327 4.42995 0.831635C4.31111 0.785942 4.18399 0.765714 4.05684 0.77226C3.92968 0.778806 3.80531 0.811981 3.6918 0.869636C3.57828 0.927291 3.47814 1.00814 3.39787 1.10695C3.31672 1.20913 3.25924 1.32802 3.22956 1.45507C3.19988 1.58212 3.19874 1.71417 3.22622 1.84171C3.56586 1.89393 3.88007 2.05284 4.12338 2.29543V2.29543Z"></path><path d="M11.8982 2.84081C11.7561 2.85638 11.6189 2.90113 11.4949 2.97225C11.371 3.04337 11.2632 3.13932 11.1781 3.25409C11.093 3.36887 11.0326 3.49998 11.0006 3.6392C10.9687 3.77842 10.9658 3.92274 10.9923 4.06311C11.0014 4.13764 11.2047 5.65261 11.424 6.78438C11.4277 6.80384 11.4252 6.824 11.4166 6.84188C11.408 6.85976 11.3939 6.87441 11.3764 6.88366C11.3589 6.89292 11.3388 6.89629 11.3192 6.89327C11.2996 6.89025 11.2815 6.88101 11.2676 6.86691L6.43628 2.03843C6.34627 1.94897 6.23852 1.87935 6.11997 1.83404C6.00141 1.78873 5.87469 1.76873 5.74794 1.77534C5.62119 1.78195 5.49723 1.81502 5.38404 1.87242C5.27084 1.92981 5.17093 2.01027 5.09071 2.1086C4.95096 2.29332 4.8839 2.5229 4.90226 2.75378C4.92063 2.98466 5.02315 3.20076 5.19036 3.36107L8.10914 6.28048C8.17733 6.3487 8.21562 6.44121 8.21559 6.53765C8.21555 6.63409 8.1772 6.72657 8.10896 6.79474C8.04072 6.86291 7.94819 6.90119 7.85172 6.90116C7.75525 6.90112 7.66274 6.86278 7.59455 6.79456L3.60914 2.80991C3.51914 2.71993 3.41125 2.64984 3.29245 2.60419C3.17364 2.55853 3.04657 2.53832 2.91946 2.54487C2.79235 2.55141 2.66802 2.58457 2.55454 2.64219C2.44106 2.6998 2.34094 2.7806 2.26067 2.87935C2.12086 3.06403 2.05374 3.29359 2.07204 3.52447C2.09034 3.75534 2.19279 3.97147 2.35995 4.13183L6.30936 8.07976C6.3776 8.14793 6.41595 8.24041 6.41599 8.33685C6.41602 8.43329 6.37773 8.5258 6.30954 8.59402C6.24135 8.66223 6.14884 8.70058 6.05237 8.70061C5.95591 8.70065 5.86337 8.66237 5.79513 8.5942L2.10284 4.90294C1.94243 4.73584 1.72625 4.63342 1.4953 4.61512C1.26436 4.59682 1.03474 4.66393 0.850008 4.80369C0.751231 4.88394 0.67041 4.98403 0.612774 5.09748C0.555139 5.21093 0.521975 5.33522 0.515427 5.46229C0.50888 5.58937 0.529095 5.71641 0.574765 5.83518C0.620435 5.95395 0.690541 6.06181 0.780547 6.15178L4.50885 9.87939C4.57509 9.94796 4.61175 10.0398 4.61092 10.1351C4.61009 10.2304 4.57185 10.3216 4.50442 10.389C4.43699 10.4564 4.34578 10.4947 4.25043 10.4955C4.15508 10.4963 4.06321 10.4597 3.99463 10.3935L1.58861 7.98814C1.42816 7.82109 1.21195 7.71873 0.98101 7.7005C0.750069 7.68227 0.520469 7.74944 0.335784 7.88925C0.237008 7.9695 0.156186 8.06959 0.0985511 8.18304C0.040916 8.29649 0.0077514 8.42078 0.00120381 8.54785C-0.00534377 8.67493 0.0148716 8.80196 0.0605415 8.92074C0.106211 9.03951 0.176318 9.14737 0.266324 9.23734L3.43022 12.4003L5.53948 14.509C6.01226 14.9817 6.57354 15.3567 7.19128 15.6125C7.80903 15.8683 8.47112 16 9.13977 16C9.80841 16 10.4705 15.8683 11.0883 15.6125C11.706 15.3567 12.2673 14.9817 12.7401 14.509L13.3721 13.8771C14.0403 13.2112 14.5097 12.3721 14.7274 11.4543C14.9451 10.5365 14.9025 9.57611 14.6046 8.68109C14.0722 7.08977 13.3154 5.29486 12.9524 3.66392C12.9035 3.42371 12.7704 3.20885 12.5772 3.05797C12.3839 2.90708 12.1431 2.83008 11.8982 2.84081Z"></path></g></svg>
