<svg width="24" height="24" viewBox="0 0 16 16" fill="#FFFFFF" fill-rule="evenodd" clip-rule="evenodd" style="pointer-events: none; filter: drop-shadow(rgba(0, 0, 0, 0.1) 0px -1px 0px);"><path d="M8 0C6.41775 0 4.87103 0.469192 3.55544 1.34824C2.23985 2.22729 1.21447 3.47672 0.608967 4.93853C0.00346629 6.40034 -0.15496 8.00887 0.153721 9.56072C0.462403 11.1126 1.22433 12.538 2.34315 13.6569C3.46197 14.7757 4.88743 15.5376 6.43928 15.8463C7.99113 16.155 9.59966 15.9965 11.0615 15.391C12.5233 14.7855 13.7727 13.7602 14.6518 12.4446C15.5308 11.129 16 9.58225 16 8C15.9977 5.87897 15.1541 3.84547 13.6543 2.34568C12.1545 0.845885 10.121 0.00229405 8 0V0ZM8 2C9.2449 2.00005 10.4585 2.38984 11.4707 3.11467L3.11467 11.4707C2.47494 10.5743 2.09468 9.51886 2.01567 8.42043C1.93667 7.32199 2.16198 6.22303 2.66684 5.2443C3.17171 4.26558 3.93659 3.44495 4.87745 2.8726C5.81831 2.30025 6.89873 1.99833 8 2ZM8 14C6.75511 13.9999 5.54146 13.6102 4.52934 12.8853L12.8853 4.52933C13.5251 5.42574 13.9053 6.48114 13.9843 7.57957C14.0633 8.67801 13.838 9.77697 13.3332 10.7557C12.8283 11.7344 12.0634 12.555 11.1226 13.1274C10.1817 13.6997 9.10128 14.0017 8 14Z"></path></svg>
