<svg width="24" height="24" viewBox="0 0 16 16" fill="#F2F2F0" fill-rule="evenodd" clip-rule="evenodd" style="pointer-events: none; filter: drop-shadow(rgba(0, 0, 0, 0.1) 0px -1px 0px);"><path d="M11.3333 0H5.33333C3.91933 0.00158807 2.5637 0.564001 1.56385 1.56385C0.564001 2.5637 0.00158807 3.91933 0 5.33333L0 15.3333C0 15.5101 0.0702379 15.6797 0.195262 15.8047C0.320286 15.9298 0.489856 16 0.666667 16H6C7.23719 15.9984 8.42325 15.5062 9.29808 14.6314C10.1729 13.7566 10.6651 12.5705 10.6667 11.3333V8H11.3333C12.1015 7.99903 12.8458 7.73327 13.4408 7.24752C14.0359 6.76177 14.4453 6.08573 14.6 5.33333H15.3333C15.5101 5.33333 15.6797 5.2631 15.8047 5.13807C15.9298 5.01305 16 4.84348 16 4.66667C15.9984 3.42948 15.5062 2.24341 14.6314 1.36859C13.7566 0.493763 12.5705 0.00158761 11.3333 0ZM5.33333 7.33333C4.93777 7.33333 4.55109 7.21604 4.22219 6.99627C3.89329 6.77651 3.63695 6.46415 3.48557 6.0987C3.3342 5.73325 3.29459 5.33111 3.37176 4.94315C3.44893 4.55519 3.63941 4.19882 3.91912 3.91912C4.19882 3.63941 4.55519 3.44893 4.94315 3.37176C5.33111 3.29459 5.73325 3.3342 6.0987 3.48557C6.46415 3.63695 6.77651 3.89329 6.99627 4.22219C7.21604 4.55109 7.33333 4.93777 7.33333 5.33333C7.33333 5.86377 7.12262 6.37247 6.74755 6.74755C6.37247 7.12262 5.86377 7.33333 5.33333 7.33333ZM11.3333 6.66667H10.6667V5.33333H13.2107C13.0733 5.72194 12.8192 6.05861 12.4831 6.29728C12.1471 6.53594 11.7455 6.66496 11.3333 6.66667V6.66667ZM10.6667 4V1.33333H11.3333C12.1015 1.33418 12.8459 1.59989 13.441 2.08566C14.036 2.57144 14.4454 3.24755 14.6 4H10.6667Z"></path></svg>
