<svg width="24" height="24" viewBox="0 0 16 16" fill="#F2F2F0" fill-rule="evenodd" clip-rule="evenodd" style="pointer-events: none; filter: drop-shadow(rgba(0, 0, 0, 0.1) 0px -1px 0px);"><g><path d="M13.3333 0H2.66667C1.95942 0 1.28115 0.280952 0.781049 0.781049C0.280952 1.28115 0 1.95942 0 2.66667L0 5.33333C0 5.51014 0.0702379 5.67971 0.195262 5.80474C0.320286 5.92976 0.489856 6 0.666667 6H3.33333C3.48195 6 3.62631 5.95033 3.74347 5.8589C3.86063 5.76746 3.94389 5.6395 3.98 5.49533L4.52067 3.33333H11.4793L12.02 5.49533C12.0561 5.6395 12.1394 5.76746 12.2565 5.8589C12.3737 5.95033 12.518 6 12.6667 6H15.3333C15.5101 6 15.6797 5.92976 15.8047 5.80474C15.9298 5.67971 16 5.51014 16 5.33333V2.66667C16 1.95942 15.719 1.28115 15.219 0.781049C14.7189 0.280952 14.0406 0 13.3333 0V0Z"></path><path d="M15.1727 11.566L11.1727 6.89932C11.1101 6.82635 11.0325 6.76778 10.9451 6.72762C10.8578 6.68746 10.7628 6.66666 10.6667 6.66666H5.33335C5.23722 6.66666 5.14223 6.68746 5.05489 6.72762C4.96756 6.76778 4.88993 6.82635 4.82735 6.89932L0.827354 11.566C0.723693 11.6868 0.666701 11.8408 0.666687 12V14C0.666687 14.5304 0.877401 15.0391 1.25247 15.4142C1.62755 15.7893 2.13625 16 2.66669 16H13.3334C13.8638 16 14.3725 15.7893 14.7476 15.4142C15.1226 15.0391 15.3334 14.5304 15.3334 14V12C15.3333 11.8408 15.2763 11.6868 15.1727 11.566V11.566ZM8.00002 13.3333C7.60446 13.3333 7.21778 13.216 6.88888 12.9963C6.55998 12.7765 6.30364 12.4641 6.15226 12.0987C6.00089 11.7332 5.96128 11.3311 6.03845 10.9431C6.11562 10.5552 6.3061 10.1988 6.58581 9.91911C6.86551 9.6394 7.22188 9.44892 7.60984 9.37175C7.9978 9.29458 8.39994 9.33419 8.76539 9.48556C9.13084 9.63694 9.4432 9.89328 9.66296 10.2222C9.88272 10.5511 10 10.9378 10 11.3333C10 11.8638 9.78931 12.3725 9.41423 12.7475C9.03916 13.1226 8.53045 13.3333 8.00002 13.3333Z"></path></g></svg>
