<svg width="24" height="24" viewBox="0 0 16 16" fill="#F2F2F0" fill-rule="evenodd" clip-rule="evenodd" style="pointer-events: none; filter: drop-shadow(rgba(0, 0, 0, 0.1) 0px -1px 0px);"><g><path d="M8.66665 0H7.33331V3.33333H8.66665V0Z"></path><path d="M12.7146 1.67661L10.3575 4.03363L11.3004 4.97644L13.6574 2.61942L12.7146 1.67661Z"></path><path d="M3.28589 1.67682L2.34302 2.61957L4.69988 4.97675L5.64275 4.03401L3.28589 1.67682Z"></path><path d="M16 6.66665H5.33332C4.37017 6.65823 3.42761 6.94543 2.6328 7.4895C1.838 8.03356 1.22918 8.80832 0.888502 9.70924C0.547821 10.6102 0.491664 11.5939 0.727608 12.5278C0.963551 13.4616 1.48024 14.3006 2.20797 14.9316C2.9357 15.5626 3.83946 15.9552 4.79731 16.0564C5.75516 16.1576 6.72102 15.9627 7.56458 15.4977C8.40814 15.0328 9.08881 14.3204 9.51477 13.4565C9.94072 12.5926 10.0915 11.6189 9.94666 10.6667H14C14.1239 10.6667 14.2453 10.6322 14.3507 10.5671C14.4561 10.502 14.5413 10.4088 14.5967 10.298L16 6.66665Z"></path></g></svg>
