<svg width="24" height="24" viewBox="0 0 16 16" fill="#F2F2F0" fill-rule="evenodd" clip-rule="evenodd" style="pointer-events: none; filter: drop-shadow(rgba(0, 0, 0, 0.1) 0px -1px 0px);"><g><path d="M6.45597 3.29866C6.62368 3.3546 6.80674 3.34164 6.96489 3.26263C7.12304 3.18362 7.24333 3.04502 7.29931 2.87733L7.96597 0.877325C8.02185 0.709355 8.0087 0.526069 7.92944 0.367788C7.85017 0.209508 7.71128 0.0891976 7.54331 0.0333253C7.37534 -0.0225469 7.19205 -0.00940482 7.03377 0.0698605C6.87549 0.149126 6.75518 0.288022 6.69931 0.455992L6.03264 2.45599C6.00509 2.53912 5.99418 2.62686 6.00054 2.7142C6.00691 2.80154 6.03042 2.88678 6.06973 2.96503C6.10904 3.04328 6.16339 3.11302 6.22966 3.17027C6.29593 3.22752 6.37283 3.27114 6.45597 3.29866Z"></path><path d="M15.1227 8.03467L13.1227 8.70133C13.0395 8.729 12.9626 8.77278 12.8963 8.83016C12.8301 8.88755 12.7758 8.95742 12.7365 9.0358C12.6973 9.11417 12.6739 9.19951 12.6676 9.28693C12.6613 9.37436 12.6723 9.46216 12.7 9.54533C12.7277 9.6285 12.7715 9.70541 12.8288 9.77166C12.8862 9.83792 12.9561 9.89222 13.0345 9.93147C13.1128 9.97071 13.1982 9.99414 13.2856 10.0004C13.373 10.0067 13.4608 9.99567 13.544 9.968L15.544 9.30133C15.6272 9.27367 15.7041 9.22989 15.7703 9.17251C15.8366 9.11512 15.8909 9.04524 15.9301 8.96687C15.9694 8.8885 15.9928 8.80316 15.9991 8.71574C16.0054 8.62831 15.9943 8.5405 15.9667 8.45733C15.939 8.37416 15.8952 8.29726 15.8379 8.231C15.7805 8.16475 15.7106 8.11045 15.6322 8.0712C15.5538 8.03195 15.4685 8.00853 15.3811 8.00226C15.2937 7.99599 15.2058 8.007 15.1227 8.03467Z"></path><path d="M10.6667 4.33333C11.5871 4.33333 12.3333 3.58714 12.3333 2.66667C12.3333 1.74619 11.5871 1 10.6667 1C9.74619 1 9 1.74619 9 2.66667C9 3.58714 9.74619 4.33333 10.6667 4.33333Z"></path><path d="M10 6.66667C10 6.84348 10.0702 7.01305 10.1953 7.13807C10.3203 7.2631 10.4899 7.33333 10.6667 7.33333C11.9039 7.33192 13.0901 6.8398 13.9649 5.96494C14.8398 5.09008 15.3319 3.90391 15.3333 2.66667C15.3333 2.48986 15.2631 2.32029 15.1381 2.19526C15.013 2.07024 14.8435 2 14.6667 2C14.4899 2 14.3203 2.07024 14.1953 2.19526C14.0702 2.32029 14 2.48986 14 2.66667C13.9989 3.5504 13.6474 4.39763 13.0225 5.02252C12.3976 5.64741 11.5504 5.99894 10.6667 6C10.4899 6 10.3203 6.07024 10.1953 6.19526C10.0702 6.32029 10 6.48986 10 6.66667Z"></path><path d="M5.13795 3.52864C5.05831 3.449 4.95979 3.39083 4.85159 3.35957C4.74338 3.32831 4.62902 3.32497 4.51917 3.34987C4.40933 3.37477 4.30758 3.42709 4.22343 3.50195C4.13928 3.57681 4.07547 3.67177 4.03795 3.77797L0.0379535 15.1113C-0.00396241 15.2299 -0.011445 15.358 0.0163707 15.4808C0.0441863 15.6035 0.106164 15.7158 0.19514 15.8048C0.284116 15.8938 0.396456 15.9557 0.519174 15.9836C0.641892 16.0114 0.769976 16.0039 0.88862 15.962L12.222 11.962C12.3282 11.9245 12.4231 11.8606 12.498 11.7765C12.5728 11.6923 12.6252 11.5906 12.6501 11.4807C12.675 11.3709 12.6716 11.2565 12.6404 11.1483C12.6091 11.0401 12.5509 10.9416 12.4713 10.862L5.13795 3.52864ZM1.75929 14.2406L2.56262 11.964L3.15729 13.7473L1.75929 14.2406ZM5.34462 12.974L3.81995 8.39997L4.55329 6.3233L6.61995 12.5233L5.34462 12.974ZM8.61129 11.822L7.14462 7.41264L9.47795 9.74597L9.99995 11.3333L8.61129 11.822Z"></path></g></svg>
